<svg xmlns="http://www.w3.org/2000/svg" xmlns:xlink="http://www.w3.org/1999/xlink" width="529" zoomAndPan="magnify" viewBox="0 0 396.75 396.749985" height="529" preserveAspectRatio="xMidYMid meet" version="1.0"><defs><clipPath id="14770709e9"><path d="M 177.496094 55.171875 L 291.136719 55.171875 L 291.136719 152.683594 L 177.496094 152.683594 Z M 177.496094 55.171875 " clip-rule="nonzero"/></clipPath><clipPath id="a5b330d021"><path d="M 176.765625 44.753906 L 295.089844 44.753906 L 295.089844 147.742188 L 176.765625 147.742188 Z M 176.765625 44.753906 " clip-rule="nonzero"/></clipPath><clipPath id="665863963f"><path d="M 22.304688 22.304688 L 374.289062 22.304688 L 374.289062 374.289062 L 22.304688 374.289062 Z M 22.304688 22.304688 " clip-rule="nonzero"/></clipPath><clipPath id="ca3503caba"><path d="M 198.296875 22.304688 C 101.097656 22.304688 22.304688 101.097656 22.304688 198.296875 C 22.304688 295.492188 101.097656 374.289062 198.296875 374.289062 C 295.492188 374.289062 374.289062 295.492188 374.289062 198.296875 C 374.289062 101.097656 295.492188 22.304688 198.296875 22.304688 Z M 198.296875 22.304688 " clip-rule="nonzero"/></clipPath><linearGradient x1="0.0000000200074" gradientTransform="matrix(7.337647, 0, 0, 7.337647, -0.000000146807, -0.0000127335)" y1="32" x2="63.999992" gradientUnits="userSpaceOnUse" y2="32" id="3fb97eb07e"><stop stop-opacity="1" stop-color="rgb(96.469116%, 73.728943%, 17.649841%)" offset="0"/><stop stop-opacity="1" stop-color="rgb(96.417236%, 73.583984%, 17.6651%)" offset="0.015625"/><stop stop-opacity="1" stop-color="rgb(96.311951%, 73.297119%, 17.695618%)" offset="0.03125"/><stop stop-opacity="1" stop-color="rgb(96.208191%, 73.008728%, 17.726135%)" offset="0.046875"/><stop stop-opacity="1" stop-color="rgb(96.104431%, 72.720337%, 17.756653%)" offset="0.0625"/><stop stop-opacity="1" stop-color="rgb(96.000671%, 72.431946%, 17.78717%)" offset="0.078125"/><stop stop-opacity="1" stop-color="rgb(95.895386%, 72.143555%, 17.817688%)" offset="0.09375"/><stop stop-opacity="1" stop-color="rgb(95.791626%, 71.855164%, 17.848206%)" offset="0.109375"/><stop stop-opacity="1" stop-color="rgb(95.687866%, 71.568298%, 17.878723%)" offset="0.125"/><stop stop-opacity="1" stop-color="rgb(95.582581%, 71.279907%, 17.909241%)" offset="0.140625"/><stop stop-opacity="1" stop-color="rgb(95.478821%, 70.991516%, 17.939758%)" offset="0.15625"/><stop stop-opacity="1" stop-color="rgb(95.375061%, 70.703125%, 17.970276%)" offset="0.171875"/><stop stop-opacity="1" stop-color="rgb(95.269775%, 70.414734%, 18.000793%)" offset="0.1875"/><stop stop-opacity="1" stop-color="rgb(95.166016%, 70.126343%, 18.031311%)" offset="0.203125"/><stop stop-opacity="1" stop-color="rgb(95.062256%, 69.839478%, 18.063354%)" offset="0.21875"/><stop stop-opacity="1" stop-color="rgb(94.958496%, 69.551086%, 18.093872%)" offset="0.234375"/><stop stop-opacity="1" stop-color="rgb(94.85321%, 69.262695%, 18.12439%)" offset="0.25"/><stop stop-opacity="1" stop-color="rgb(94.749451%, 68.974304%, 18.154907%)" offset="0.265625"/><stop stop-opacity="1" stop-color="rgb(94.645691%, 68.685913%, 18.185425%)" offset="0.28125"/><stop stop-opacity="1" stop-color="rgb(94.540405%, 68.399048%, 18.215942%)" offset="0.296875"/><stop stop-opacity="1" stop-color="rgb(94.436646%, 68.110657%, 18.24646%)" offset="0.3125"/><stop stop-opacity="1" stop-color="rgb(94.332886%, 67.822266%, 18.276978%)" offset="0.328125"/><stop stop-opacity="1" stop-color="rgb(94.2276%, 67.533875%, 18.307495%)" offset="0.34375"/><stop stop-opacity="1" stop-color="rgb(94.12384%, 67.245483%, 18.338013%)" offset="0.359375"/><stop stop-opacity="1" stop-color="rgb(94.020081%, 66.957092%, 18.36853%)" offset="0.375"/><stop stop-opacity="1" stop-color="rgb(93.916321%, 66.670227%, 18.399048%)" offset="0.390625"/><stop stop-opacity="1" stop-color="rgb(93.811035%, 66.381836%, 18.429565%)" offset="0.40625"/><stop stop-opacity="1" stop-color="rgb(93.707275%, 66.093445%, 18.460083%)" offset="0.421875"/><stop stop-opacity="1" stop-color="rgb(93.603516%, 65.805054%, 18.492126%)" offset="0.4375"/><stop stop-opacity="1" stop-color="rgb(93.49823%, 65.516663%, 18.522644%)" offset="0.453125"/><stop stop-opacity="1" stop-color="rgb(93.39447%, 65.228271%, 18.553162%)" offset="0.46875"/><stop stop-opacity="1" stop-color="rgb(93.29071%, 64.941406%, 18.583679%)" offset="0.484375"/><stop stop-opacity="1" stop-color="rgb(93.185425%, 64.653015%, 18.614197%)" offset="0.5"/><stop stop-opacity="1" stop-color="rgb(93.081665%, 64.364624%, 18.644714%)" offset="0.515625"/><stop stop-opacity="1" stop-color="rgb(92.977905%, 64.076233%, 18.675232%)" offset="0.53125"/><stop stop-opacity="1" stop-color="rgb(92.874146%, 63.787842%, 18.70575%)" offset="0.546875"/><stop stop-opacity="1" stop-color="rgb(92.76886%, 63.499451%, 18.736267%)" offset="0.5625"/><stop stop-opacity="1" stop-color="rgb(92.6651%, 63.212585%, 18.766785%)" offset="0.578125"/><stop stop-opacity="1" stop-color="rgb(92.56134%, 62.924194%, 18.797302%)" offset="0.59375"/><stop stop-opacity="1" stop-color="rgb(92.456055%, 62.635803%, 18.82782%)" offset="0.609375"/><stop stop-opacity="1" stop-color="rgb(92.352295%, 62.347412%, 18.858337%)" offset="0.625"/><stop stop-opacity="1" stop-color="rgb(92.248535%, 62.059021%, 18.888855%)" offset="0.640625"/><stop stop-opacity="1" stop-color="rgb(92.14325%, 61.772156%, 18.919373%)" offset="0.65625"/><stop stop-opacity="1" stop-color="rgb(92.03949%, 61.483765%, 18.951416%)" offset="0.671875"/><stop stop-opacity="1" stop-color="rgb(91.93573%, 61.195374%, 18.981934%)" offset="0.6875"/><stop stop-opacity="1" stop-color="rgb(91.83197%, 60.906982%, 19.012451%)" offset="0.703125"/><stop stop-opacity="1" stop-color="rgb(91.726685%, 60.618591%, 19.042969%)" offset="0.71875"/><stop stop-opacity="1" stop-color="rgb(91.622925%, 60.3302%, 19.073486%)" offset="0.734375"/><stop stop-opacity="1" stop-color="rgb(91.519165%, 60.043335%, 19.104004%)" offset="0.75"/><stop stop-opacity="1" stop-color="rgb(91.413879%, 59.754944%, 19.134521%)" offset="0.765625"/><stop stop-opacity="1" stop-color="rgb(91.31012%, 59.466553%, 19.165039%)" offset="0.78125"/><stop stop-opacity="1" stop-color="rgb(91.20636%, 59.178162%, 19.195557%)" offset="0.796875"/><stop stop-opacity="1" stop-color="rgb(91.101074%, 58.889771%, 19.226074%)" offset="0.8125"/><stop stop-opacity="1" stop-color="rgb(90.997314%, 58.601379%, 19.256592%)" offset="0.828125"/><stop stop-opacity="1" stop-color="rgb(90.893555%, 58.314514%, 19.287109%)" offset="0.84375"/><stop stop-opacity="1" stop-color="rgb(90.789795%, 58.026123%, 19.317627%)" offset="0.859375"/><stop stop-opacity="1" stop-color="rgb(90.684509%, 57.737732%, 19.348145%)" offset="0.875"/><stop stop-opacity="1" stop-color="rgb(90.58075%, 57.449341%, 19.380188%)" offset="0.890625"/><stop stop-opacity="1" stop-color="rgb(90.47699%, 57.16095%, 19.410706%)" offset="0.90625"/><stop stop-opacity="1" stop-color="rgb(90.371704%, 56.872559%, 19.441223%)" offset="0.921875"/><stop stop-opacity="1" stop-color="rgb(90.267944%, 56.585693%, 19.471741%)" offset="0.9375"/><stop stop-opacity="1" stop-color="rgb(90.164185%, 56.297302%, 19.502258%)" offset="0.953125"/><stop stop-opacity="1" stop-color="rgb(90.058899%, 56.008911%, 19.532776%)" offset="0.96875"/><stop stop-opacity="1" stop-color="rgb(89.955139%, 55.72052%, 19.563293%)" offset="0.984375"/><stop stop-opacity="1" stop-color="rgb(89.851379%, 55.432129%, 19.593811%)" offset="1"/></linearGradient><clipPath id="d77c05b54d"><path d="M 120 248 L 317 248 L 317 361 L 120 361 Z M 120 248 " clip-rule="nonzero"/></clipPath><clipPath id="626d7623d9"><path d="M 109.769531 321.222656 L 297.414062 230.628906 L 332.285156 302.851562 L 144.640625 393.445312 Z M 109.769531 321.222656 " clip-rule="nonzero"/></clipPath><clipPath id="d3345a8028"><path d="M 109.769531 321.222656 L 297.414062 230.628906 L 332.285156 302.851562 L 144.640625 393.445312 Z M 109.769531 321.222656 " clip-rule="nonzero"/></clipPath><clipPath id="a8ffc5cdc0"><path d="M 109.769531 321.222656 L 297.414062 230.628906 L 332.285156 302.851562 L 144.640625 393.445312 Z M 109.769531 321.222656 " clip-rule="nonzero"/></clipPath><clipPath id="5ef77bae67"><path d="M 278 255 L 308 255 L 308 305 L 278 305 Z M 278 255 " clip-rule="nonzero"/></clipPath><clipPath id="75113f91c8"><path d="M 109.769531 321.222656 L 297.414062 230.628906 L 332.285156 302.851562 L 144.640625 393.445312 Z M 109.769531 321.222656 " clip-rule="nonzero"/></clipPath><clipPath id="64f3729120"><path d="M 109.769531 321.222656 L 297.414062 230.628906 L 332.285156 302.851562 L 144.640625 393.445312 Z M 109.769531 321.222656 " clip-rule="nonzero"/></clipPath><clipPath id="29e726f1ba"><path d="M 109.769531 321.222656 L 297.414062 230.628906 L 332.285156 302.851562 L 144.640625 393.445312 Z M 109.769531 321.222656 " clip-rule="nonzero"/></clipPath><clipPath id="278bf98fff"><path d="M 126 252 L 312 252 L 312 358 L 126 358 Z M 126 252 " clip-rule="nonzero"/></clipPath><clipPath id="53ad986d00"><path d="M 109.769531 321.222656 L 297.414062 230.628906 L 332.285156 302.851562 L 144.640625 393.445312 Z M 109.769531 321.222656 " clip-rule="nonzero"/></clipPath><clipPath id="fcc05a33a0"><path d="M 109.769531 321.222656 L 297.414062 230.628906 L 332.285156 302.851562 L 144.640625 393.445312 Z M 109.769531 321.222656 " clip-rule="nonzero"/></clipPath><clipPath id="dc895fa106"><path d="M 109.769531 321.222656 L 297.414062 230.628906 L 332.285156 302.851562 L 144.640625 393.445312 Z M 109.769531 321.222656 " clip-rule="nonzero"/></clipPath></defs><g clip-path="url(#14770709e9)"><path fill="#4ca538" d="M 246.753906 67.445312 C 236.847656 58.472656 235.84375 80.75 250.160156 79.84375 C 250.160156 79.84375 252.480469 72.636719 246.753906 67.445312 Z M 223.460938 96.976562 C 223.460938 96.976562 217.492188 101.3125 220.835938 109.726562 C 226.621094 124.273438 238.703125 106.445312 223.460938 96.976562 Z M 276.007812 87.796875 C 278.746094 97.25 290.53125 97.125 290.53125 97.125 C 294.917969 83.179688 271.25 71.367188 276.007812 87.796875 Z M 232.648438 149.566406 C 236.058594 158.777344 247.738281 145.691406 237.515625 135.269531 C 237.515625 135.269531 229.242188 140.359375 232.648438 149.566406 Z M 260.894531 112.925781 C 254.488281 120.417969 261.097656 130.132812 261.097656 130.132812 C 275.195312 126.082031 272.03125 99.910156 260.894531 112.925781 Z M 195.664062 119.519531 C 191.726562 137.875 210.503906 124.609375 204.910156 112.492188 C 204.910156 112.492188 196.730469 114.535156 195.664062 119.519531 Z M 199.128906 55.328125 C 192.921875 55.417969 193.304688 63.355469 193.304688 63.355469 C 200.539062 69.441406 218.433594 55.046875 199.128906 55.328125 Z M 190.550781 85.269531 C 193.230469 102.960938 171.773438 105.402344 179.113281 91.570312 C 183.359375 83.570312 190.550781 85.269531 190.550781 85.269531 " fill-opacity="1" fill-rule="nonzero"/></g><g clip-path="url(#a5b330d021)"><path fill="#2f6d30" d="M 298.765625 74.722656 C 297.554688 83.417969 295.632812 91.414062 293.054688 98.484375 C 289.804688 107.398438 285.488281 114.867188 280.226562 120.6875 C 271.433594 130.421875 259.957031 135.652344 246.117188 136.238281 C 245.320312 136.269531 244.527344 136.289062 243.742188 136.289062 C 241.660156 136.289062 239.628906 136.167969 237.652344 135.929688 C 237.683594 138.054688 237.714844 144.730469 236.90625 147.660156 L 236.671875 147.597656 C 237.476562 144.683594 237.441406 137.980469 237.40625 135.898438 C 227.734375 134.6875 219.347656 130.632812 212.402344 123.78125 C 209.429688 120.847656 206.71875 117.386719 204.285156 113.441406 C 202.8125 115.292969 199.558594 119.78125 199.191406 123.652344 L 198.949219 123.625 C 199.328125 119.648438 202.691406 115.050781 204.148438 113.21875 C 202.011719 109.726562 200.089844 105.859375 198.398438 101.625 C 197.0625 98.277344 195.871094 94.699219 194.820312 90.917969 C 192.933594 89.734375 191.183594 88.402344 189.570312 86.925781 C 187.5625 89.839844 183.292969 95.828125 181.246094 97.125 L 181.117188 96.921875 C 183.105469 95.660156 187.398438 89.644531 189.390625 86.757812 C 188.160156 85.613281 187.007812 84.382812 185.941406 83.070312 C 174.210938 68.585938 177.019531 45.570312 177.148438 44.753906 L 180.996094 45.335938 C 180.96875 45.519531 178.335938 67.527344 188.992188 80.660156 C 190.296875 82.269531 191.75 83.734375 193.347656 85.058594 C 192.753906 82.429688 192.222656 79.71875 191.761719 76.929688 C 189.1875 61.398438 189.5625 45.273438 189.578125 44.753906 L 193.46875 44.882812 C 193.46875 44.964844 193.300781 54.226562 193.933594 62.402344 C 195.453125 60.902344 199.046875 58.476562 203.472656 59.390625 L 203.421875 59.628906 C 198.789062 58.671875 195.273438 61.394531 193.960938 62.75 C 194.28125 66.785156 194.792969 71.4375 195.613281 76.375 C 196.234375 80.089844 197.066406 84.175781 198.179688 88.394531 C 203.929688 91.667969 211.03125 93.578125 219.425781 94.097656 C 230.890625 94.808594 239.703125 92.101562 245.617188 86.050781 C 247.421875 84.207031 248.886719 82.128906 250.078125 79.914062 C 249.792969 79.589844 243.035156 71.949219 242.066406 69.039062 L 242.277344 68.96875 C 243.1875 71.707031 249.554688 78.988281 250.1875 79.707031 C 256.347656 68.050781 254.976562 52.640625 254.472656 46.949219 C 254.273438 44.730469 258.210938 44.78125 258.210938 44.753906 C 258.203125 44.972656 258.277344 45.804688 258.347656 46.605469 C 258.996094 53.859375 260.957031 75.925781 248.40625 88.753906 C 242.527344 94.769531 234.292969 97.894531 223.894531 98.078125 C 224.722656 101.089844 226.828125 109.148438 226.460938 111.722656 L 226.222656 111.6875 C 226.578125 109.175781 224.445312 101.023438 223.640625 98.078125 C 223.402344 98.082031 223.164062 98.085938 222.925781 98.085938 C 221.707031 98.085938 220.460938 98.046875 219.183594 97.96875 C 211.75 97.507812 205.230469 96.011719 199.660156 93.5 C 202.8125 103.480469 207.671875 113.660156 215.148438 121.03125 C 223.300781 129.070312 233.664062 132.882812 245.953125 132.363281 C 251.4375 132.132812 256.515625 131.109375 261.167969 129.3125 C 261.355469 126.34375 262.21875 116.734375 265.664062 113.613281 L 265.828125 113.792969 C 262.535156 116.773438 261.632812 126.160156 261.421875 129.214844 C 267.476562 126.828125 272.800781 123.113281 277.335938 118.09375 C 282.9375 111.894531 286.875 104.207031 289.640625 96.425781 C 287.023438 94.433594 279.902344 88.652344 279.214844 84.214844 L 279.457031 84.179688 C 280.117188 88.433594 287.089844 94.152344 289.722656 96.179688 C 292.433594 88.484375 294.003906 80.710938 294.910156 74.191406 C 296.910156 59.804688 296.214844 45.597656 296.207031 45.484375 L 300.09375 45.238281 C 300.125 45.722656 300.820312 59.953125 298.765625 74.722656 " fill-opacity="1" fill-rule="nonzero"/></g><g clip-path="url(#665863963f)"><g clip-path="url(#ca3503caba)"><path stroke-linecap="butt" transform="matrix(0.749528, 0, 0, 0.749528, 22.303425, 22.303425)" fill="none" stroke-linejoin="miter" d="M 234.8058 0.00168456 C 105.125176 0.00168456 0.00168447 105.125177 0.00168447 234.8058 C 0.00168447 364.481211 105.125176 469.609915 234.8058 469.609915 C 364.481211 469.609915 469.609915 364.481211 469.609915 234.8058 C 469.609915 105.125177 364.481211 0.00168456 234.8058 0.00168456 Z M 234.8058 0.00168456 " stroke="url(#3fb97eb07e)" stroke-width="68" stroke-miterlimit="4"/></g></g><g clip-path="url(#d77c05b54d)"><g clip-path="url(#626d7623d9)"><g clip-path="url(#d3345a8028)"><g clip-path="url(#a8ffc5cdc0)"><path fill="#f6bc2d" d="M 290.421875 248.078125 C 294.597656 248.667969 309.105469 254.867188 315.042969 281.53125 C 320.984375 308.195312 302.449219 313.644531 299.511719 314.410156 C 287.144531 318.050781 246.363281 329.480469 244.964844 330.425781 C 243.5625 331.375 240.679688 329.230469 240.679688 329.230469 C 240.679688 329.230469 192.421875 340.734375 190.550781 341.601562 C 188.679688 342.46875 185.972656 340.828125 185.972656 340.828125 L 152.476562 349.136719 C 152.476562 349.136719 151.140625 355.386719 147.660156 357.335938 C 144.179688 359.289062 137.960938 360.804688 134.414062 360.753906 C 130.863281 360.699219 124.230469 351.15625 121.476562 338.359375 C 118.71875 325.558594 123.128906 316.996094 123.859375 315.59375 C 124.59375 314.191406 131.457031 311.660156 136.476562 311.058594 C 138.628906 310.800781 142.808594 315.890625 142.808594 315.890625 L 173.605469 303.921875 C 173.605469 303.921875 174.542969 297.925781 177.214844 296.644531 C 179.886719 295.363281 225.113281 277.519531 225.113281 277.519531 C 225.113281 277.519531 226.554688 273.464844 228.902344 272.191406 C 231.246094 270.914062 284.136719 247.1875 290.421875 248.078125 Z M 290.421875 248.078125 " fill-opacity="1" fill-rule="nonzero"/></g></g></g></g><g clip-path="url(#5ef77bae67)"><g clip-path="url(#75113f91c8)"><g clip-path="url(#64f3729120)"><g clip-path="url(#29e726f1ba)"><path fill="#fff6e1" d="M 284.050781 255.5 C 273.433594 261.460938 280.183594 283.363281 287.71875 295.492188 C 295.253906 307.621094 302.617188 305.097656 304.753906 303.648438 C 306.363281 302.390625 310.324219 294.839844 304.808594 278.632812 C 299.292969 262.417969 286.746094 255.070312 284.050781 255.5 Z M 302.949219 288.144531 C 303.136719 289.613281 286.835938 282.21875 286.625 280.3125 C 286.414062 278.410156 302.644531 285.785156 302.949219 288.144531 Z M 302.777344 279.871094 C 302.554688 281.816406 280.675781 269.980469 280.703125 267.964844 C 280.730469 265.941406 303.003906 277.925781 302.777344 279.871094 Z M 302.777344 279.871094 " fill-opacity="1" fill-rule="nonzero"/></g></g></g></g><g clip-path="url(#278bf98fff)"><g clip-path="url(#53ad986d00)"><g clip-path="url(#fcc05a33a0)"><g clip-path="url(#dc895fa106)"><path fill="#d35b38" d="M 276.109375 254.554688 C 275.917969 255.023438 271.359375 262.8125 274.09375 279.507812 C 276.828125 296.203125 284.152344 309.417969 296.609375 312.03125 C 298.710938 313.269531 296.183594 313.753906 291.933594 311.851562 C 287.679688 309.945312 279.992188 306.578125 274.078125 286.984375 C 268.164062 267.390625 273.816406 256.15625 274.519531 254.386719 C 275.226562 252.613281 277.128906 252.007812 276.109375 254.554688 Z M 303.863281 266.367188 C 295.859375 252.222656 287.84375 254.738281 287.347656 254.441406 C 286.398438 254.4375 284.910156 255.652344 289.679688 256.054688 C 293.339844 256.363281 299.535156 259.4375 305.890625 273.585938 C 312.242188 287.730469 310.023438 293.441406 309.746094 296.09375 C 309.46875 298.742188 309.773438 301.78125 310.734375 298.449219 C 312.472656 290.457031 311.867188 280.511719 303.863281 266.367188 Z M 224.375 307.207031 C 226.234375 312.503906 229.933594 316.917969 228.101562 312.511719 C 222.429688 303.667969 222.546875 285.535156 225.113281 277.515625 L 223.929688 277.980469 C 219.757812 288.050781 222.515625 301.914062 224.375 307.207031 Z M 238.867188 329.664062 L 240.683594 329.230469 C 239.164062 328.679688 234.863281 323.632812 233.742188 323.242188 C 232.621094 322.847656 235.9375 327.363281 238.867188 329.664062 Z M 174.398438 316.851562 C 174.714844 316.117188 172.414062 308.582031 173.601562 303.917969 L 172.433594 304.085938 C 171.3125 312.410156 174.082031 317.589844 174.398438 316.851562 Z M 178.5625 328.742188 C 176.691406 326.609375 178.167969 336.03125 184.25 341.226562 L 185.972656 340.828125 C 185.796875 340.71875 185.613281 340.597656 185.4375 340.460938 C 183.003906 338.605469 180.457031 334.136719 178.5625 328.742188 Z M 138.65625 317.894531 C 133.296875 318.980469 129.902344 327.121094 136.195312 338.8125 C 142.488281 350.503906 150.15625 349.769531 150.621094 349.785156 C 151.742188 349.820312 151.582031 349.042969 150.117188 348.496094 C 147.335938 347.453125 144.28125 347.980469 138.417969 340.179688 C 132.554688 332.382812 133.746094 323.515625 135.917969 320.894531 C 138.089844 318.273438 139.703125 317.984375 138.65625 317.894531 Z M 129.546875 335.46875 C 126.339844 319.078125 131.144531 314.714844 131.097656 314.125 C 131.59375 313.042969 130.378906 311.597656 128.320312 317.871094 C 125.574219 326.015625 127.101562 334.824219 131.945312 345.902344 C 136.980469 356.429688 142.628906 358.847656 143.269531 357.460938 C 143.910156 356.078125 132.753906 351.859375 129.546875 335.46875 Z M 129.546875 335.46875 " fill-opacity="1" fill-rule="nonzero"/></g></g></g></g></svg>