<svg xmlns="http://www.w3.org/2000/svg" xmlns:xlink="http://www.w3.org/1999/xlink" width="529" zoomAndPan="magnify" viewBox="0 0 396.75 396.749985" height="529" preserveAspectRatio="xMidYMid meet" version="1.0"><defs><clipPath id="25cd5ff26c"><path d="M 22.304688 22.304688 L 374.289062 22.304688 L 374.289062 374.289062 L 22.304688 374.289062 Z M 22.304688 22.304688 " clip-rule="nonzero"/></clipPath><clipPath id="44bf97d518"><path d="M 198.296875 22.304688 C 101.097656 22.304688 22.304688 101.097656 22.304688 198.296875 C 22.304688 295.492188 101.097656 374.289062 198.296875 374.289062 C 295.492188 374.289062 374.289062 295.492188 374.289062 198.296875 C 374.289062 101.097656 295.492188 22.304688 198.296875 22.304688 Z M 198.296875 22.304688 " clip-rule="nonzero"/></clipPath><radialGradient gradientTransform="matrix(1.334174, 0, 0, 1.334174, -0.000000146807, -0.0000146535)" gradientUnits="userSpaceOnUse" r="248.892078" cx="175.992627" id="7a823cd179" cy="175.992627" fx="175.992627" fy="175.992627"><stop stop-opacity="1" stop-color="rgb(16.793823%, 99.835205%, 95.220947%)" offset="0"/><stop stop-opacity="1" stop-color="rgb(16.694641%, 99.589539%, 95.120239%)" offset="0.0078125"/><stop stop-opacity="1" stop-color="rgb(16.627502%, 99.424744%, 95.053101%)" offset="0.0117188"/><stop stop-opacity="1" stop-color="rgb(16.56189%, 99.261475%, 94.985962%)" offset="0.015625"/><stop stop-opacity="1" stop-color="rgb(16.496277%, 99.09668%, 94.918823%)" offset="0.0195312"/><stop stop-opacity="1" stop-color="rgb(16.430664%, 98.933411%, 94.851685%)" offset="0.0234375"/><stop stop-opacity="1" stop-color="rgb(16.365051%, 98.770142%, 94.78302%)" offset="0.0273438"/><stop stop-opacity="1" stop-color="rgb(16.299438%, 98.605347%, 94.715881%)" offset="0.03125"/><stop stop-opacity="1" stop-color="rgb(16.2323%, 98.442078%, 94.648743%)" offset="0.0351562"/><stop stop-opacity="1" stop-color="rgb(16.166687%, 98.277283%, 94.581604%)" offset="0.0390625"/><stop stop-opacity="1" stop-color="rgb(16.101074%, 98.114014%, 94.514465%)" offset="0.0429688"/><stop stop-opacity="1" stop-color="rgb(16.035461%, 97.949219%, 94.447327%)" offset="0.046875"/><stop stop-opacity="1" stop-color="rgb(15.969849%, 97.78595%, 94.380188%)" offset="0.0507812"/><stop stop-opacity="1" stop-color="rgb(15.904236%, 97.622681%, 94.311523%)" offset="0.0546875"/><stop stop-opacity="1" stop-color="rgb(15.837097%, 97.457886%, 94.244385%)" offset="0.0585938"/><stop stop-opacity="1" stop-color="rgb(15.771484%, 97.294617%, 94.177246%)" offset="0.0625"/><stop stop-opacity="1" stop-color="rgb(15.705872%, 97.129822%, 94.110107%)" offset="0.0664062"/><stop stop-opacity="1" stop-color="rgb(15.640259%, 96.966553%, 94.042969%)" offset="0.0703125"/><stop stop-opacity="1" stop-color="rgb(15.574646%, 96.803284%, 93.97583%)" offset="0.0742188"/><stop stop-opacity="1" stop-color="rgb(15.509033%, 96.638489%, 93.907166%)" offset="0.078125"/><stop stop-opacity="1" stop-color="rgb(15.441895%, 96.47522%, 93.840027%)" offset="0.0820312"/><stop stop-opacity="1" stop-color="rgb(15.376282%, 96.310425%, 93.772888%)" offset="0.0859375"/><stop stop-opacity="1" stop-color="rgb(15.310669%, 96.147156%, 93.70575%)" offset="0.0898438"/><stop stop-opacity="1" stop-color="rgb(15.245056%, 95.982361%, 93.638611%)" offset="0.09375"/><stop stop-opacity="1" stop-color="rgb(15.179443%, 95.819092%, 93.571472%)" offset="0.0976562"/><stop stop-opacity="1" stop-color="rgb(15.113831%, 95.655823%, 93.502808%)" offset="0.101562"/><stop stop-opacity="1" stop-color="rgb(15.048218%, 95.491028%, 93.435669%)" offset="0.105469"/><stop stop-opacity="1" stop-color="rgb(14.981079%, 95.327759%, 93.36853%)" offset="0.109375"/><stop stop-opacity="1" stop-color="rgb(14.915466%, 95.162964%, 93.301392%)" offset="0.113281"/><stop stop-opacity="1" stop-color="rgb(14.849854%, 94.999695%, 93.234253%)" offset="0.117188"/><stop stop-opacity="1" stop-color="rgb(14.784241%, 94.836426%, 93.167114%)" offset="0.121094"/><stop stop-opacity="1" stop-color="rgb(14.718628%, 94.671631%, 93.09845%)" offset="0.125"/><stop stop-opacity="1" stop-color="rgb(14.653015%, 94.508362%, 93.031311%)" offset="0.128906"/><stop stop-opacity="1" stop-color="rgb(14.585876%, 94.343567%, 92.964172%)" offset="0.132812"/><stop stop-opacity="1" stop-color="rgb(14.520264%, 94.180298%, 92.897034%)" offset="0.136719"/><stop stop-opacity="1" stop-color="rgb(14.454651%, 94.015503%, 92.829895%)" offset="0.140625"/><stop stop-opacity="1" stop-color="rgb(14.389038%, 93.852234%, 92.762756%)" offset="0.144531"/><stop stop-opacity="1" stop-color="rgb(14.323425%, 93.688965%, 92.695618%)" offset="0.148438"/><stop stop-opacity="1" stop-color="rgb(14.257812%, 93.52417%, 92.626953%)" offset="0.152344"/><stop stop-opacity="1" stop-color="rgb(14.190674%, 93.360901%, 92.559814%)" offset="0.15625"/><stop stop-opacity="1" stop-color="rgb(14.125061%, 93.196106%, 92.492676%)" offset="0.160156"/><stop stop-opacity="1" stop-color="rgb(14.059448%, 93.032837%, 92.425537%)" offset="0.164062"/><stop stop-opacity="1" stop-color="rgb(13.993835%, 92.869568%, 92.358398%)" offset="0.167969"/><stop stop-opacity="1" stop-color="rgb(13.928223%, 92.704773%, 92.29126%)" offset="0.171875"/><stop stop-opacity="1" stop-color="rgb(13.86261%, 92.541504%, 92.222595%)" offset="0.175781"/><stop stop-opacity="1" stop-color="rgb(13.795471%, 92.376709%, 92.155457%)" offset="0.179688"/><stop stop-opacity="1" stop-color="rgb(13.729858%, 92.21344%, 92.088318%)" offset="0.183594"/><stop stop-opacity="1" stop-color="rgb(13.664246%, 92.048645%, 92.021179%)" offset="0.1875"/><stop stop-opacity="1" stop-color="rgb(13.598633%, 91.885376%, 91.954041%)" offset="0.191406"/><stop stop-opacity="1" stop-color="rgb(13.53302%, 91.722107%, 91.886902%)" offset="0.195312"/><stop stop-opacity="1" stop-color="rgb(13.467407%, 91.557312%, 91.818237%)" offset="0.199219"/><stop stop-opacity="1" stop-color="rgb(13.400269%, 91.394043%, 91.751099%)" offset="0.203125"/><stop stop-opacity="1" stop-color="rgb(13.334656%, 91.229248%, 91.68396%)" offset="0.207031"/><stop stop-opacity="1" stop-color="rgb(13.269043%, 91.065979%, 91.616821%)" offset="0.210938"/><stop stop-opacity="1" stop-color="rgb(13.20343%, 90.90271%, 91.549683%)" offset="0.214844"/><stop stop-opacity="1" stop-color="rgb(13.137817%, 90.737915%, 91.482544%)" offset="0.21875"/><stop stop-opacity="1" stop-color="rgb(13.072205%, 90.574646%, 91.413879%)" offset="0.222656"/><stop stop-opacity="1" stop-color="rgb(13.005066%, 90.409851%, 91.346741%)" offset="0.226562"/><stop stop-opacity="1" stop-color="rgb(12.939453%, 90.246582%, 91.279602%)" offset="0.230469"/><stop stop-opacity="1" stop-color="rgb(12.87384%, 90.081787%, 91.212463%)" offset="0.234375"/><stop stop-opacity="1" stop-color="rgb(12.808228%, 89.918518%, 91.145325%)" offset="0.238281"/><stop stop-opacity="1" stop-color="rgb(12.742615%, 89.755249%, 91.078186%)" offset="0.242188"/><stop stop-opacity="1" stop-color="rgb(12.677002%, 89.590454%, 91.011047%)" offset="0.246094"/><stop stop-opacity="1" stop-color="rgb(12.611389%, 89.427185%, 90.942383%)" offset="0.25"/><stop stop-opacity="1" stop-color="rgb(12.512207%, 89.181519%, 90.841675%)" offset="0.253906"/><stop stop-opacity="1" stop-color="rgb(12.380981%, 88.853455%, 90.707397%)" offset="0.261719"/><stop stop-opacity="1" stop-color="rgb(12.24823%, 88.525391%, 90.571594%)" offset="0.269531"/><stop stop-opacity="1" stop-color="rgb(12.117004%, 88.197327%, 90.437317%)" offset="0.277344"/><stop stop-opacity="1" stop-color="rgb(11.985779%, 87.869263%, 90.30304%)" offset="0.285156"/><stop stop-opacity="1" stop-color="rgb(11.853027%, 87.541199%, 90.167236%)" offset="0.292969"/><stop stop-opacity="1" stop-color="rgb(11.721802%, 87.214661%, 90.032959%)" offset="0.300781"/><stop stop-opacity="1" stop-color="rgb(11.590576%, 86.886597%, 89.898682%)" offset="0.308594"/><stop stop-opacity="1" stop-color="rgb(11.457825%, 86.558533%, 89.762878%)" offset="0.316406"/><stop stop-opacity="1" stop-color="rgb(11.326599%, 86.230469%, 89.628601%)" offset="0.324219"/><stop stop-opacity="1" stop-color="rgb(11.195374%, 85.902405%, 89.494324%)" offset="0.332031"/><stop stop-opacity="1" stop-color="rgb(11.062622%, 85.574341%, 89.360046%)" offset="0.339844"/><stop stop-opacity="1" stop-color="rgb(10.931396%, 85.246277%, 89.224243%)" offset="0.347656"/><stop stop-opacity="1" stop-color="rgb(10.800171%, 84.919739%, 89.089966%)" offset="0.355469"/><stop stop-opacity="1" stop-color="rgb(10.668945%, 84.591675%, 88.955688%)" offset="0.363281"/><stop stop-opacity="1" stop-color="rgb(10.536194%, 84.263611%, 88.819885%)" offset="0.371094"/><stop stop-opacity="1" stop-color="rgb(10.404968%, 83.935547%, 88.685608%)" offset="0.378906"/><stop stop-opacity="1" stop-color="rgb(10.273743%, 83.607483%, 88.551331%)" offset="0.386719"/><stop stop-opacity="1" stop-color="rgb(10.140991%, 83.279419%, 88.415527%)" offset="0.394531"/><stop stop-opacity="1" stop-color="rgb(10.009766%, 82.952881%, 88.28125%)" offset="0.402344"/><stop stop-opacity="1" stop-color="rgb(9.87854%, 82.624817%, 88.146973%)" offset="0.410156"/><stop stop-opacity="1" stop-color="rgb(9.745789%, 82.296753%, 88.011169%)" offset="0.417969"/><stop stop-opacity="1" stop-color="rgb(9.614563%, 81.968689%, 87.876892%)" offset="0.425781"/><stop stop-opacity="1" stop-color="rgb(9.483337%, 81.640625%, 87.742615%)" offset="0.433594"/><stop stop-opacity="1" stop-color="rgb(9.350586%, 81.312561%, 87.606812%)" offset="0.441406"/><stop stop-opacity="1" stop-color="rgb(9.21936%, 80.986023%, 87.472534%)" offset="0.449219"/><stop stop-opacity="1" stop-color="rgb(9.088135%, 80.657959%, 87.338257%)" offset="0.457031"/><stop stop-opacity="1" stop-color="rgb(8.955383%, 80.329895%, 87.202454%)" offset="0.464844"/><stop stop-opacity="1" stop-color="rgb(8.824158%, 80.001831%, 87.068176%)" offset="0.472656"/><stop stop-opacity="1" stop-color="rgb(8.692932%, 79.673767%, 86.933899%)" offset="0.480469"/><stop stop-opacity="1" stop-color="rgb(8.560181%, 79.345703%, 86.798096%)" offset="0.488281"/><stop stop-opacity="1" stop-color="rgb(8.428955%, 79.019165%, 86.663818%)" offset="0.496094"/><stop stop-opacity="1" stop-color="rgb(8.329773%, 78.773499%, 86.56311%)" offset="0.503906"/><stop stop-opacity="1" stop-color="rgb(8.26416%, 78.608704%, 86.495972%)" offset="0.507812"/><stop stop-opacity="1" stop-color="rgb(8.198547%, 78.445435%, 86.428833%)" offset="0.511719"/><stop stop-opacity="1" stop-color="rgb(8.132935%, 78.28064%, 86.360168%)" offset="0.515625"/><stop stop-opacity="1" stop-color="rgb(8.065796%, 78.117371%, 86.29303%)" offset="0.519531"/><stop stop-opacity="1" stop-color="rgb(8.000183%, 77.954102%, 86.225891%)" offset="0.523438"/><stop stop-opacity="1" stop-color="rgb(7.93457%, 77.789307%, 86.158752%)" offset="0.527344"/><stop stop-opacity="1" stop-color="rgb(7.868958%, 77.626038%, 86.091614%)" offset="0.53125"/><stop stop-opacity="1" stop-color="rgb(7.803345%, 77.461243%, 86.024475%)" offset="0.535156"/><stop stop-opacity="1" stop-color="rgb(7.737732%, 77.297974%, 85.957336%)" offset="0.539062"/><stop stop-opacity="1" stop-color="rgb(7.670593%, 77.133179%, 85.888672%)" offset="0.542969"/><stop stop-opacity="1" stop-color="rgb(7.60498%, 76.96991%, 85.821533%)" offset="0.546875"/><stop stop-opacity="1" stop-color="rgb(7.539368%, 76.806641%, 85.754395%)" offset="0.550781"/><stop stop-opacity="1" stop-color="rgb(7.473755%, 76.641846%, 85.687256%)" offset="0.554688"/><stop stop-opacity="1" stop-color="rgb(7.408142%, 76.478577%, 85.620117%)" offset="0.558594"/><stop stop-opacity="1" stop-color="rgb(7.342529%, 76.313782%, 85.552979%)" offset="0.5625"/><stop stop-opacity="1" stop-color="rgb(7.275391%, 76.150513%, 85.484314%)" offset="0.566406"/><stop stop-opacity="1" stop-color="rgb(7.209778%, 75.987244%, 85.417175%)" offset="0.570312"/><stop stop-opacity="1" stop-color="rgb(7.144165%, 75.822449%, 85.350037%)" offset="0.574219"/><stop stop-opacity="1" stop-color="rgb(7.078552%, 75.65918%, 85.282898%)" offset="0.578125"/><stop stop-opacity="1" stop-color="rgb(7.012939%, 75.494385%, 85.215759%)" offset="0.582031"/><stop stop-opacity="1" stop-color="rgb(6.947327%, 75.331116%, 85.148621%)" offset="0.585938"/><stop stop-opacity="1" stop-color="rgb(6.880188%, 75.166321%, 85.079956%)" offset="0.589844"/><stop stop-opacity="1" stop-color="rgb(6.814575%, 75.003052%, 85.012817%)" offset="0.59375"/><stop stop-opacity="1" stop-color="rgb(6.748962%, 74.839783%, 84.945679%)" offset="0.597656"/><stop stop-opacity="1" stop-color="rgb(6.68335%, 74.674988%, 84.87854%)" offset="0.601562"/><stop stop-opacity="1" stop-color="rgb(6.617737%, 74.511719%, 84.811401%)" offset="0.605469"/><stop stop-opacity="1" stop-color="rgb(6.552124%, 74.346924%, 84.744263%)" offset="0.609375"/><stop stop-opacity="1" stop-color="rgb(6.484985%, 74.183655%, 84.675598%)" offset="0.613281"/><stop stop-opacity="1" stop-color="rgb(6.419373%, 74.020386%, 84.608459%)" offset="0.617188"/><stop stop-opacity="1" stop-color="rgb(6.35376%, 73.855591%, 84.541321%)" offset="0.621094"/><stop stop-opacity="1" stop-color="rgb(6.288147%, 73.692322%, 84.474182%)" offset="0.625"/><stop stop-opacity="1" stop-color="rgb(6.190491%, 73.445129%, 84.373474%)" offset="0.628906"/><stop stop-opacity="1" stop-color="rgb(6.057739%, 73.118591%, 84.237671%)" offset="0.636719"/><stop stop-opacity="1" stop-color="rgb(5.926514%, 72.790527%, 84.103394%)" offset="0.644531"/><stop stop-opacity="1" stop-color="rgb(5.795288%, 72.462463%, 83.969116%)" offset="0.652344"/><stop stop-opacity="1" stop-color="rgb(5.662537%, 72.134399%, 83.833313%)" offset="0.660156"/><stop stop-opacity="1" stop-color="rgb(5.531311%, 71.806335%, 83.699036%)" offset="0.667969"/><stop stop-opacity="1" stop-color="rgb(5.400085%, 71.478271%, 83.564758%)" offset="0.675781"/><stop stop-opacity="1" stop-color="rgb(5.267334%, 71.151733%, 83.428955%)" offset="0.683594"/><stop stop-opacity="1" stop-color="rgb(5.136108%, 70.823669%, 83.294678%)" offset="0.691406"/><stop stop-opacity="1" stop-color="rgb(5.004883%, 70.495605%, 83.1604%)" offset="0.699219"/><stop stop-opacity="1" stop-color="rgb(4.872131%, 70.167542%, 83.024597%)" offset="0.707031"/><stop stop-opacity="1" stop-color="rgb(4.740906%, 69.839478%, 82.89032%)" offset="0.714844"/><stop stop-opacity="1" stop-color="rgb(4.60968%, 69.511414%, 82.756042%)" offset="0.722656"/><stop stop-opacity="1" stop-color="rgb(4.476929%, 69.184875%, 82.621765%)" offset="0.730469"/><stop stop-opacity="1" stop-color="rgb(4.345703%, 68.856812%, 82.485962%)" offset="0.738281"/><stop stop-opacity="1" stop-color="rgb(4.214478%, 68.528748%, 82.351685%)" offset="0.746094"/><stop stop-opacity="1" stop-color="rgb(4.115295%, 68.283081%, 82.250977%)" offset="0.753906"/><stop stop-opacity="1" stop-color="rgb(4.049683%, 68.118286%, 82.183838%)" offset="0.757812"/><stop stop-opacity="1" stop-color="rgb(3.982544%, 67.955017%, 82.115173%)" offset="0.761719"/><stop stop-opacity="1" stop-color="rgb(3.916931%, 67.791748%, 82.048035%)" offset="0.765625"/><stop stop-opacity="1" stop-color="rgb(3.851318%, 67.626953%, 81.980896%)" offset="0.769531"/><stop stop-opacity="1" stop-color="rgb(3.785706%, 67.463684%, 81.913757%)" offset="0.773438"/><stop stop-opacity="1" stop-color="rgb(3.720093%, 67.298889%, 81.846619%)" offset="0.777344"/><stop stop-opacity="1" stop-color="rgb(3.65448%, 67.13562%, 81.77948%)" offset="0.78125"/><stop stop-opacity="1" stop-color="rgb(3.587341%, 66.972351%, 81.710815%)" offset="0.785156"/><stop stop-opacity="1" stop-color="rgb(3.521729%, 66.807556%, 81.643677%)" offset="0.789062"/><stop stop-opacity="1" stop-color="rgb(3.456116%, 66.644287%, 81.576538%)" offset="0.792969"/><stop stop-opacity="1" stop-color="rgb(3.390503%, 66.479492%, 81.509399%)" offset="0.796875"/><stop stop-opacity="1" stop-color="rgb(3.32489%, 66.316223%, 81.442261%)" offset="0.800781"/><stop stop-opacity="1" stop-color="rgb(3.259277%, 66.151428%, 81.375122%)" offset="0.804688"/><stop stop-opacity="1" stop-color="rgb(3.192139%, 65.988159%, 81.306458%)" offset="0.808594"/><stop stop-opacity="1" stop-color="rgb(3.126526%, 65.82489%, 81.239319%)" offset="0.8125"/><stop stop-opacity="1" stop-color="rgb(3.02887%, 65.577698%, 81.138611%)" offset="0.816406"/><stop stop-opacity="1" stop-color="rgb(2.896118%, 65.25116%, 81.004333%)" offset="0.824219"/><stop stop-opacity="1" stop-color="rgb(2.764893%, 64.923096%, 80.86853%)" offset="0.832031"/><stop stop-opacity="1" stop-color="rgb(2.633667%, 64.595032%, 80.734253%)" offset="0.839844"/><stop stop-opacity="1" stop-color="rgb(2.500916%, 64.266968%, 80.599976%)" offset="0.847656"/><stop stop-opacity="1" stop-color="rgb(2.36969%, 63.938904%, 80.464172%)" offset="0.855469"/><stop stop-opacity="1" stop-color="rgb(2.238464%, 63.61084%, 80.329895%)" offset="0.863281"/><stop stop-opacity="1" stop-color="rgb(2.107239%, 63.284302%, 80.195618%)" offset="0.871094"/><stop stop-opacity="1" stop-color="rgb(2.008057%, 63.038635%, 80.09491%)" offset="0.878906"/><stop stop-opacity="1" stop-color="rgb(1.940918%, 62.87384%, 80.026245%)" offset="0.882812"/><stop stop-opacity="1" stop-color="rgb(1.875305%, 62.710571%, 79.959106%)" offset="0.886719"/><stop stop-opacity="1" stop-color="rgb(1.809692%, 62.545776%, 79.891968%)" offset="0.890625"/><stop stop-opacity="1" stop-color="rgb(1.74408%, 62.382507%, 79.824829%)" offset="0.894531"/><stop stop-opacity="1" stop-color="rgb(1.678467%, 62.217712%, 79.75769%)" offset="0.898438"/><stop stop-opacity="1" stop-color="rgb(1.612854%, 62.054443%, 79.690552%)" offset="0.902344"/><stop stop-opacity="1" stop-color="rgb(1.545715%, 61.891174%, 79.621887%)" offset="0.90625"/><stop stop-opacity="1" stop-color="rgb(1.448059%, 61.643982%, 79.521179%)" offset="0.910156"/><stop stop-opacity="1" stop-color="rgb(1.316833%, 61.317444%, 79.386902%)" offset="0.917969"/><stop stop-opacity="1" stop-color="rgb(1.184082%, 60.98938%, 79.252625%)" offset="0.925781"/><stop stop-opacity="1" stop-color="rgb(1.052856%, 60.661316%, 79.116821%)" offset="0.933594"/><stop stop-opacity="1" stop-color="rgb(0.953674%, 60.415649%, 79.016113%)" offset="0.941406"/><stop stop-opacity="1" stop-color="rgb(0.888062%, 60.250854%, 78.948975%)" offset="0.945312"/><stop stop-opacity="1" stop-color="rgb(0.822449%, 60.087585%, 78.881836%)" offset="0.949219"/><stop stop-opacity="1" stop-color="rgb(0.75531%, 59.924316%, 78.814697%)" offset="0.953125"/><stop stop-opacity="1" stop-color="rgb(0.657654%, 59.677124%, 78.712463%)" offset="0.957031"/><stop stop-opacity="1" stop-color="rgb(0.526428%, 59.350586%, 78.578186%)" offset="0.964844"/><stop stop-opacity="1" stop-color="rgb(0.427246%, 59.104919%, 78.477478%)" offset="0.972656"/><stop stop-opacity="1" stop-color="rgb(0.360107%, 58.940125%, 78.410339%)" offset="0.976562"/><stop stop-opacity="1" stop-color="rgb(0.262451%, 58.694458%, 78.308105%)" offset="0.980469"/><stop stop-opacity="1" stop-color="rgb(0.163269%, 58.448792%, 78.207397%)" offset="0.988281"/><stop stop-opacity="1" stop-color="rgb(0.0656128%, 58.203125%, 78.106689%)" offset="0.992188"/><stop stop-opacity="1" stop-color="rgb(0%, 58.039856%, 78.039551%)" offset="1"/></radialGradient><clipPath id="8d5e5a900b"><path d="M 142.144531 261.984375 L 254.574219 261.984375 L 254.574219 374.414062 L 142.144531 374.414062 Z M 142.144531 261.984375 " clip-rule="nonzero"/></clipPath><clipPath id="bb368214b4"><path d="M 217 26.898438 L 239 26.898438 L 239 39 L 217 39 Z M 217 26.898438 " clip-rule="nonzero"/></clipPath><clipPath id="b9b66ce1f9"><path d="M 157 26.898438 L 179 26.898438 L 179 39 L 157 39 Z M 157 26.898438 " clip-rule="nonzero"/></clipPath><clipPath id="3957a203cf"><path d="M 139.378906 57 L 189 57 L 189 106.347656 L 139.378906 106.347656 Z M 139.378906 57 " clip-rule="nonzero"/></clipPath><clipPath id="97a9ca5016"><path d="M 207 57 L 257.054688 57 L 257.054688 106.347656 L 207 106.347656 Z M 207 57 " clip-rule="nonzero"/></clipPath></defs><g clip-path="url(#25cd5ff26c)"><g clip-path="url(#44bf97d518)"><path stroke-linecap="butt" transform="matrix(0.749528, 0, 0, 0.749528, 22.303425, 22.303366)" fill="none" stroke-linejoin="miter" d="M 234.8058 0.00176264 C 105.125176 0.00176264 0.00168447 105.125255 0.00168447 234.805878 C 0.00168447 364.481289 105.125176 469.609993 234.8058 469.609993 C 364.481211 469.609993 469.609915 364.481289 469.609915 234.805878 C 469.609915 105.125255 364.481211 0.00176264 234.8058 0.00176264 Z M 234.8058 0.00176264 " stroke="url(#7a823cd179)" stroke-width="68" stroke-miterlimit="4"/></g></g><path fill="#185299" d="M 246.1875 311.96875 C 245.570312 311.96875 245.03125 311.519531 244.9375 310.894531 C 241.789062 290.480469 225.960938 274.652344 205.542969 271.503906 C 204.855469 271.398438 204.378906 270.75 204.484375 270.0625 C 204.589844 269.371094 205.234375 268.898438 205.929688 269.003906 C 216.40625 270.613281 225.925781 275.449219 233.453125 282.980469 C 240.988281 290.515625 245.820312 300.035156 247.4375 310.507812 C 247.542969 311.199219 247.066406 311.84375 246.378906 311.949219 C 246.3125 311.964844 246.246094 311.96875 246.1875 311.96875 " fill-opacity="1" fill-rule="nonzero"/><path fill="#185299" d="M 150.414062 311.96875 C 150.351562 311.96875 150.285156 311.964844 150.222656 311.949219 C 149.527344 311.84375 149.054688 311.199219 149.164062 310.507812 C 150.777344 300.035156 155.613281 290.515625 163.144531 282.980469 C 170.675781 275.449219 180.195312 270.613281 190.671875 269.003906 C 191.363281 268.894531 192.007812 269.367188 192.113281 270.0625 C 192.21875 270.75 191.746094 271.398438 191.058594 271.503906 C 170.640625 274.652344 154.808594 290.480469 151.664062 310.894531 C 151.566406 311.519531 151.027344 311.96875 150.414062 311.96875 " fill-opacity="1" fill-rule="nonzero"/><path fill="#185299" d="M 190.863281 367.292969 C 190.796875 367.292969 190.730469 367.289062 190.667969 367.277344 C 180.195312 365.664062 170.675781 360.828125 163.140625 353.296875 C 155.609375 345.765625 150.777344 336.246094 149.164062 325.769531 C 149.054688 325.082031 149.527344 324.433594 150.222656 324.328125 C 150.914062 324.222656 151.558594 324.695312 151.664062 325.382812 C 154.808594 345.800781 170.640625 361.632812 191.050781 364.777344 C 191.746094 364.882812 192.21875 365.53125 192.109375 366.21875 C 192.011719 366.847656 191.472656 367.292969 190.863281 367.292969 " fill-opacity="1" fill-rule="nonzero"/><path fill="#185299" d="M 205.738281 367.292969 C 205.121094 367.292969 204.582031 366.847656 204.484375 366.21875 C 204.378906 365.53125 204.855469 364.882812 205.542969 364.777344 C 225.960938 361.632812 241.789062 345.800781 244.9375 325.386719 C 245.042969 324.695312 245.6875 324.222656 246.378906 324.332031 C 247.066406 324.4375 247.542969 325.082031 247.4375 325.773438 C 245.820312 336.246094 240.988281 345.765625 233.453125 353.300781 C 225.921875 360.832031 216.40625 365.667969 205.929688 367.277344 C 205.863281 367.289062 205.796875 367.292969 205.738281 367.292969 " fill-opacity="1" fill-rule="nonzero"/><g clip-path="url(#8d5e5a900b)"><path fill="#185299" d="M 208.84375 307.597656 L 198.300781 261.984375 L 187.757812 307.597656 L 142.144531 318.140625 L 187.757812 328.683594 L 198.300781 374.296875 L 208.84375 328.683594 L 254.457031 318.140625 L 208.84375 307.597656 " fill-opacity="1" fill-rule="nonzero"/></g><path fill="#185299" d="M 185.648438 305.488281 L 186.652344 301.144531 L 172.410156 292.253906 L 181.304688 306.492188 L 185.648438 305.488281 " fill-opacity="1" fill-rule="nonzero"/><path fill="#185299" d="M 210.953125 305.488281 L 215.296875 306.492188 L 224.1875 292.253906 L 209.949219 301.144531 L 210.953125 305.488281 " fill-opacity="1" fill-rule="nonzero"/><path fill="#185299" d="M 210.953125 330.792969 L 209.949219 335.136719 L 224.1875 344.03125 L 215.296875 329.789062 L 210.953125 330.792969 " fill-opacity="1" fill-rule="nonzero"/><path fill="#185299" d="M 185.648438 330.792969 L 181.304688 329.789062 L 172.410156 344.03125 L 186.652344 335.136719 L 185.648438 330.792969 " fill-opacity="1" fill-rule="nonzero"/><g clip-path="url(#bb368214b4)"><path fill="#185299" d="M 229.71875 34.929688 C 233.421875 34.707031 236.238281 34.882812 238.65625 35.492188 L 237.835938 32.878906 C 236.582031 28.800781 233.554688 26.902344 228.304688 26.902344 C 225.691406 26.902344 223.246094 27.554688 221.425781 28.746094 C 219.746094 29.839844 218.824219 31.246094 218.824219 32.707031 C 218.824219 32.804688 218.824219 32.875 217.910156 38.742188 C 218.460938 38.292969 219.035156 37.878906 219.648438 37.507812 C 222.183594 35.972656 225.195312 35.199219 229.71875 34.929688 Z M 229.71875 34.929688 " fill-opacity="1" fill-rule="nonzero"/></g><path fill="#185299" d="M 217.320312 59.667969 C 221.800781 56.597656 227.054688 54.972656 232.511719 54.972656 C 238.011719 54.972656 243.304688 56.621094 247.808594 59.742188 C 249.996094 61.257812 251.925781 63.0625 253.550781 65.105469 L 245.796875 42.609375 C 241.457031 37.476562 236.652344 36.703125 229.851562 37.113281 C 221.363281 37.625 219.300781 39.902344 215.023438 44.878906 L 210.953125 65.769531 C 212.714844 63.417969 214.855469 61.355469 217.320312 59.667969 Z M 217.320312 59.667969 " fill-opacity="1" fill-rule="nonzero"/><path fill="#185299" d="M 212.1875 48 L 205.851562 49.671875 C 205.871094 49.898438 205.886719 50.128906 205.886719 50.359375 L 206.9375 67.574219 L 208.375 67.574219 Z M 212.1875 48 " fill-opacity="1" fill-rule="nonzero"/><path fill="#185299" d="M 204.660156 66.175781 L 203.703125 50.460938 C 203.699219 50.441406 203.699219 50.417969 203.699219 50.394531 C 203.699219 47.421875 201.277344 45 198.304688 45 C 195.328125 45 192.90625 47.421875 192.90625 50.394531 C 192.90625 50.417969 192.90625 50.4375 192.90625 50.460938 L 191.984375 66.132812 C 193.609375 64.519531 195.84375 63.523438 198.304688 63.523438 C 200.785156 63.523438 203.035156 64.539062 204.660156 66.175781 Z M 204.660156 66.175781 " fill-opacity="1" fill-rule="nonzero"/><path fill="#185299" d="M 188.320312 67.574219 L 189.707031 67.574219 L 190.71875 50.363281 C 190.71875 50.128906 190.730469 49.902344 190.753906 49.675781 L 184.425781 48 Z M 188.320312 67.574219 " fill-opacity="1" fill-rule="nonzero"/><g clip-path="url(#b9b66ce1f9)"><path fill="#185299" d="M 166.886719 34.929688 C 171.40625 35.199219 174.421875 35.972656 176.957031 37.507812 C 177.570312 37.878906 178.144531 38.292969 178.695312 38.742188 C 177.78125 32.875 177.78125 32.804688 177.78125 32.707031 C 177.78125 31.246094 176.859375 29.839844 175.179688 28.746094 C 173.359375 27.554688 170.914062 26.902344 168.300781 26.902344 C 163.050781 26.902344 160.019531 28.800781 158.769531 32.878906 L 157.949219 35.492188 C 160.367188 34.882812 163.183594 34.707031 166.886719 34.929688 Z M 166.886719 34.929688 " fill-opacity="1" fill-rule="nonzero"/></g><path fill="#185299" d="M 148.796875 59.742188 C 153.300781 56.621094 158.59375 54.972656 164.09375 54.972656 C 169.550781 54.972656 174.800781 56.59375 179.285156 59.667969 C 181.75 61.355469 183.890625 63.417969 185.648438 65.769531 L 181.582031 44.878906 C 177.304688 39.902344 175.242188 37.625 166.753906 37.113281 C 159.953125 36.703125 155.148438 37.476562 150.808594 42.609375 L 143.054688 65.105469 C 144.679688 63.0625 146.609375 61.257812 148.796875 59.742188 Z M 148.796875 59.742188 " fill-opacity="1" fill-rule="nonzero"/><g clip-path="url(#3957a203cf)"><path fill="#185299" d="M 186.929688 72.40625 C 183.085938 63.140625 174.140625 57.160156 164.09375 57.160156 C 153.910156 57.160156 144.910156 63.261719 141.136719 72.710938 L 141.105469 72.792969 C 139.960938 75.683594 139.382812 78.734375 139.382812 81.871094 C 139.382812 95.5 150.46875 106.585938 164.09375 106.585938 C 177.71875 106.585938 188.804688 95.5 188.804688 81.871094 C 188.804688 78.652344 188.195312 75.519531 186.996094 72.566406 Z M 178.128906 95.90625 C 174.382812 99.65625 169.394531 101.722656 164.09375 101.722656 C 158.792969 101.722656 153.808594 99.65625 150.058594 95.90625 C 146.3125 92.160156 144.246094 87.175781 144.246094 81.871094 C 144.246094 76.570312 146.3125 71.585938 150.058594 67.835938 C 153.808594 64.089844 158.792969 62.023438 164.09375 62.023438 C 169.394531 62.023438 174.382812 64.089844 178.128906 67.835938 C 181.878906 71.585938 183.941406 76.570312 183.941406 81.871094 C 183.941406 87.175781 181.878906 92.160156 178.128906 95.90625 Z M 178.128906 95.90625 " fill-opacity="1" fill-rule="nonzero"/></g><path fill="#185299" d="M 198.300781 65.710938 C 195.101562 65.710938 192.414062 67.941406 191.703125 70.925781 L 191.566406 73.28125 C 191.957031 76.652344 194.828125 79.277344 198.300781 79.277344 C 201.90625 79.277344 204.863281 76.453125 205.074219 72.902344 L 204.972656 71.261719 C 204.390625 68.109375 201.621094 65.710938 198.300781 65.710938 Z M 198.300781 65.710938 " fill-opacity="1" fill-rule="nonzero"/><g clip-path="url(#97a9ca5016)"><path fill="#185299" d="M 255.5 72.792969 L 255.457031 72.683594 C 251.679688 63.25 242.683594 57.160156 232.511719 57.160156 C 222.445312 57.160156 213.488281 63.160156 209.65625 72.457031 L 209.609375 72.566406 C 208.410156 75.519531 207.796875 78.652344 207.796875 81.871094 C 207.796875 95.496094 218.882812 106.585938 232.511719 106.585938 C 246.136719 106.585938 257.222656 95.496094 257.222656 81.871094 C 257.222656 78.734375 256.644531 75.679688 255.5 72.792969 Z M 246.546875 95.90625 C 242.796875 99.65625 237.8125 101.722656 232.511719 101.722656 C 227.210938 101.722656 222.222656 99.65625 218.476562 95.90625 C 214.726562 92.160156 212.660156 87.175781 212.660156 81.871094 C 212.660156 76.570312 214.726562 71.585938 218.476562 67.835938 C 222.222656 64.089844 227.207031 62.023438 232.511719 62.023438 C 237.8125 62.023438 242.796875 64.089844 246.546875 67.835938 C 250.292969 71.585938 252.359375 76.570312 252.359375 81.871094 C 252.359375 87.175781 250.292969 92.160156 246.546875 95.90625 Z M 246.546875 95.90625 " fill-opacity="1" fill-rule="nonzero"/></g></svg>